<svg width="1347.9125px" height="359.6175048828125px" xmlns="http://www.w3.org/2000/svg" viewBox="-423.95624999999995 -104.80875244140626 1347.9125 359.6175048828125" style="background: rgb(248, 249, 250);" preserveAspectRatio="xMidYMid"><defs><filter id="editing-hole" x="-100%" y="-100%" width="300%" height="300%"><feFlood flood-color="#e76a24" result="black"></feFlood><feMorphology operator="dilate" radius="2" in="SourceGraphic" result="erode"></feMorphology><feGaussianBlur in="erode" stdDeviation="4" result="blur"></feGaussianBlur><feOffset in="blur" dx="2" dy="2" result="offset"></feOffset><feComposite operator="atop" in="offset" in2="black" result="merge"></feComposite><feComposite operator="in" in="merge" in2="SourceGraphic" result="inner-shadow"></feComposite></filter></defs><g filter="url(#editing-hole)"><g transform="translate(-236.3968687057495, 156.5)"><path d="M108.20-55.60L108.20-55.60L108.20-55.60Q96.20-55.60 88-61.10L88-61.10L88-61.10Q79.80-66.60 79.80-75L79.80-75L79.80-75Q79.80-85.60 93.60-96.20L93.60-96.20L93.60-96.20Q96-98 97.20-98L97.20-98L97.20-98Q98.40-98 98.40-97.20L98.40-97.20L98.40-97.20Q98.40-95.20 95.20-94L95.20-94L95.20-94Q84-85 84-75.80L84-75.80L84-75.80Q84-69.20 90-64.70L90-64.70L90-64.70Q96-60.20 105-60.20L105-60.20L105-60.20Q124.60-60.20 142-79L142-79L142-79Q151-88.80 151-101.60L151-101.60L151-101.60Q151-114.40 141.40-120.60L141.40-120.60L141.40-120.60Q133.40-126.20 119.80-126.20L119.80-126.20L119.80-126.20Q100.20-126.20 80.40-116.40L80.40-116.40L80.40-116.40Q56-104.60 36.30-79.70L36.30-79.70L36.30-79.70Q16.60-54.80 16.60-31.80L16.60-31.80L16.60-31.80Q16.60-13.60 29-3.70L29-3.70L29-3.70Q41.40 6.20 59.80 6.20L59.80 6.20L59.80 6.20Q80.80 6.20 101-4L101-4L101-4Q116.40-12 127.60-24.40L127.60-24.40L127.60-24.40Q130.80-28 132.60-28L132.60-28L132.60-28Q133.80-28 133.80-25.90L133.80-25.90L133.80-25.90Q133.80-23.80 131.60-21.60L131.60-21.60L131.60-21.60Q121-10.40 101 0L101 0L101 0Q76.40 13 51.50 13L51.50 13L51.50 13Q26.60 13 14.40-3.40L14.40-3.40L14.40-3.40Q6.20-14.20 6.20-29.20L6.20-29.20L6.20-29.20Q6.20-35.80 7.80-43.40L7.80-43.40L7.80-43.40Q13.20-69 36.20-93.20L36.20-93.20L36.20-93.20Q52.80-110.60 75.60-120.30L75.60-120.30L75.60-120.30Q98.40-130 118.80-130L118.80-130L118.80-130Q129.60-130 137.60-127.40L137.60-127.40L137.60-127.40Q159.40-120.60 159.40-100L159.40-100L159.40-100Q159.40-87.40 152-78.20L152-78.20L152-78.20Q133.60-55.60 108.20-55.60ZM211.60-59.80L211.60-59.80L214.40-60.40L214.40-60.40Q216.60-60.40 218.60-58.60L218.60-58.60L218.60-58.60Q220.60-56.80 220.60-55.80L220.60-55.80L220.60-55.80Q220.60-54.80 208.20-36.50L208.20-36.50L208.20-36.50Q195.80-18.20 195.80-11L195.80-11L195.80-11Q195.80-10.40 196.00-9.80L196.00-9.80L196.00-9.80Q197.00-5.20 200.40-5.20L200.40-5.20L200.40-5.20Q210.80-5.20 238.40-39.60L238.40-39.60L238.40-39.60Q239.00-40.40 239.80-40.40L239.80-40.40L239.80-40.40Q240.60-40.40 240.60-38.90L240.60-38.90L240.60-38.90Q240.60-37.40 238.80-35L238.80-35L238.80-35Q213.20-0.80 199.80-0.80L199.80-0.80L199.80-0.80Q198.00-0.80 196.40-1.40L196.40-1.40L196.40-1.40Q187.60-4.80 187.60-14.60L187.60-14.60L187.60-14.60Q187.60-18 188.40-21.40L188.40-21.40L176.00-9.40L176.00-9.40Q164.20 1 158.90 1L158.90 1L158.90 1Q153.60 1 148.80-2.40L148.80-2.40L148.80-2.40Q143.40-6.40 143.40-13L143.40-13L143.40-13Q143.40-27.60 163.80-47.90L163.80-47.90L163.80-47.90Q184.20-68.20 201.20-68.20L201.20-68.20L201.20-68.20Q207.80-68.20 210-63.60L210-63.60L210-63.60Q210.60-62 211-60.90L211-60.90L211-60.90Q211.40-59.80 211.60-59.80ZM151.80-10.60L151.80-10.60L151.80-10.60Q151.80-3.40 156.80-3.40L156.80-3.40L156.80-3.40Q168.40-3.40 188.40-28.80L188.40-28.80L209.60-58L209.60-58Q208.00-60.80 204.40-60.80L204.40-60.80L204.40-60.80Q192.20-60.80 172.00-41.90L172.00-41.90L172.00-41.90Q151.80-23 151.80-10.60ZM268.40 1L268.40 1L268.40 1Q253.40 1 253.40-15.60L253.40-15.60L253.40-15.60Q253.40-24 257.80-34L257.80-34L257.80-34Q262.20-44 267.40-50.80L267.40-50.80L267.40-50.80Q266.40-50.60 264.80-50.60L264.80-50.60L264.80-50.60Q260-50.60 256.80-57.40L256.80-57.40L242.00-38.20L242.00-38.20Q229.60-22.80 227.60-22.80L227.60-22.80L227.60-22.80Q226.60-22.80 226.60-23.60L226.60-23.60L226.60-23.60Q226.60-25.60 230.00-29.40L230.00-29.40L230.00-29.40Q247.40-49.60 254.60-63.60L254.60-63.60L254.60-63.60Q259.20-81 266.20-81L266.20-81L266.20-81Q270.80-81 270.80-77L270.80-77L270.80-77Q270.80-73 265.80-66.80L265.80-66.80L261-60.40L261-60.40Q261-56.20 267.20-56.20L267.20-56.20L267.20-56.20Q270.80-56.20 275.20-58.80L275.20-58.80L280.40-62L280.40-62Q280.80-62.20 282.40-62.20L282.40-62.20L282.40-62.20Q284-62.20 285.80-60.20L285.80-60.20L285.80-60.20Q287.60-58.20 287-56.60L287-56.60L273.20-39.20L273.20-39.20Q260.40-22.80 260.40-13.30L260.40-13.30L260.40-13.30Q260.40-3.80 269.20-3.80L269.20-3.80L269.20-3.80Q278.40-3.80 291.80-13.60L291.80-13.60L291.80-13.60Q299.80-19.40 306.40-26.60L306.40-26.60L306.40-26.60Q312.60-33.80 313.20-33.80L313.20-33.80L313.20-33.80Q314.60-33.80 314.60-32.30L314.60-32.30L314.60-32.30Q314.60-30.80 312.80-28.80L312.80-28.80L306.40-21.60L306.40-21.60Q301-16 294.40-10.80L294.40-10.80L294.40-10.80Q278.60 1 268.40 1ZM314.20-10L314.20-10L314.20-10Q314.20-4 320.80-4L320.80-4L320.80-4Q327.40-4 337.80-11L337.80-11L337.80-11Q348.20-18 358.00-30L358.00-30L358.00-30Q360.40-33.20 361.80-33.20L361.80-33.20L361.80-33.20Q363.20-33.20 363.20-32L363.20-32L363.20-32Q363.20-30.80 355.00-21.60L355.00-21.60L355.00-21.60Q335.00 0.40 321.60 0.40L321.60 0.40L321.60 0.40Q315.00 0.40 310.40-2.70L310.40-2.70L310.40-2.70Q305.80-5.80 305.80-12.30L305.80-12.30L305.80-12.30Q305.80-18.80 309.20-27.40L309.20-27.40L309.20-27.40Q315.00-41 327.80-61.60L327.80-61.60L327.80-61.60Q351.20-99.60 361.00-99.60L361.00-99.60L361.00-99.60Q363.00-99.60 365.10-98.10L365.10-98.10L365.10-98.10Q367.20-96.60 367.40-94.80L367.40-94.80L367.40-94.80Q362.80-88.60 349.70-71L349.70-71L349.70-71Q336.60-53.40 331.60-45.70L331.60-45.70L331.60-45.70Q326.60-38 324.10-34.20L324.10-34.20L324.10-34.20Q321.60-30.40 320.40-28.30L320.40-28.30L320.40-28.30Q319.20-26.20 317.60-22.80L317.60-22.80L317.60-22.80Q314.20-16 314.20-10ZM407.20-42.40L407.20-42.40L407.20-42.40Q407.20-35.40 393.80-19L393.80-19L393.80-19Q378.00 0.40 366.80 0.40L366.80 0.40L363.60 0.40L363.60 0.40Q358.40 0.40 355.40-5L355.40-5L355.40-5Q353.00-8.80 353.00-13.40L353.00-13.40L353.00-13.40Q353.00-25.40 370.50-47.10L370.50-47.10L370.50-47.10Q388.00-68.80 398.80-68.80L398.80-68.80L398.80-68.80Q409.00-68.80 409.00-58L409.00-58L409.00-58Q409.00-55.20 408.00-50.80L408.00-50.80L408.00-50.80Q408.20-50.20 411.80-50.20L411.80-50.20L411.80-50.20Q415.40-50.20 422.80-54L422.80-54L422.80-54Q422.60-50.60 407.00-44.20L407.00-44.20L407.00-44.20Q407.20-43.40 407.20-42.40ZM394.20-52.80L394.20-52.80L394.20-52.80Q387.40-52.80 374.90-36.80L374.90-36.80L374.90-36.80Q362.40-20.80 362.40-13.20L362.40-13.20L362.40-13.20Q362.40-5.60 367.20-5.60L367.20-5.60L367.20-5.60Q375.80-5.60 389.00-21.20L389.00-21.20L389.00-21.20Q402.20-36.80 402.20-43.60L402.20-43.60L402.20-43.60Q399.00-45.40 394.20-52.80ZM454.40-7.20L448.00-3L448.00-3Q442.20 0.40 433.70 0.40L433.70 0.40L433.70 0.40Q425.20 0.40 420.70-5.20L420.70-5.20L420.70-5.20Q416.20-10.80 413.00-23L413.00-23L413.00-23Q409.40-19.40 408.00-19.40L408.00-19.40L408.00-19.40Q407.00-19.40 407.00-20.80L407.00-20.80L407.00-20.80Q407.00-22.20 408.00-23.20L408.00-23.20L408.00-23.20Q414.60-31.40 430.40-46.80L430.40-46.80L455.60-70.40L455.60-70.40Q466.40-80.60 468.40-80.60L468.40-80.60L468.40-80.60Q474.80-80.60 474.80-75.80L474.80-75.80L474.80-75.80Q474.80-73.40 472.90-71.10L472.90-71.10L472.90-71.10Q471.00-68.80 470.10-67.50L470.10-67.50L470.10-67.50Q469.20-66.20 468.20-65L468.20-65L468.20-65Q464.60-58.80 460.90-39.40L460.90-39.40L460.90-39.40Q457.20-20 455.20-12.40L455.20-12.40L455.20-12.40Q471.80-12.60 489.40-34L489.40-34L489.40-34Q491.40-36 492.40-36L492.40-36L492.40-36Q493.40-36 493.40-34.70L493.40-34.70L493.40-34.70Q493.40-33.40 491.60-31.20L491.60-31.20L491.60-31.20Q480.00-17.60 470.00-12.20L470.00-12.20L470.00-12.20Q464.00-9.20 454.40-7.20L454.40-7.20ZM421.00-25.20L421.00-25.20L421.00-25.20Q421.00-18.40 425.50-14.10L425.50-14.10L425.50-14.10Q430.00-9.80 435.60-9.80L435.60-9.80L435.60-9.80Q441.20-9.80 444.20-12L444.20-12L444.20-12Q448.20-14.20 452.10-30.40L452.10-30.40L452.10-30.40Q456.00-46.60 456.80-59L456.80-59L457.60-65.80L457.60-65.80Q446.60-57.60 434.10-44.60L434.10-44.60L434.10-44.60Q421.60-31.60 421.20-27.40L421.20-27.40L421.20-27.40Q421.00-26.20 421.00-25.20ZM528.20-13.40L528.20-13.40L528.20-13.40Q528.20-35 541-56.20L541-56.20L541-56.20Q526.20-65.60 526.20-84L526.20-84L526.20-84Q526.20-106.20 545.80-123.40L545.80-123.40L545.80-123.40Q567.80-142.80 602.60-142.80L602.60-142.80L602.60-142.80Q618.60-142.80 637-138.20L637-138.20L637-138.20Q641.20-137.20 672.80-122.70L672.80-122.70L672.80-122.70Q704.40-108.20 718.20-108.20L718.20-108.20L718.20-108.20Q727.40-108.20 732-113.40L732-113.40L732-113.40Q734.40-116 734.40-119L734.40-119L734.40-119Q734.40-122 731.80-124.40L731.80-124.40L731.80-124.40Q730.40-126.40 730.40-127L730.40-127L730.40-127Q730.40-127.60 731.50-127.60L731.50-127.60L731.50-127.60Q732.60-127.60 735.30-124.10L735.30-124.10L735.30-124.10Q738-120.60 738-115.90L738-115.90L738-115.90Q738-111.20 731.70-106.90L731.70-106.90L731.70-106.90Q725.40-102.60 715.80-102.60L715.80-102.60L715.80-102.60Q700.80-102.60 669.20-117.10L669.20-117.10L669.20-117.10Q637.60-131.60 629.50-133.20L629.50-133.20L629.50-133.20Q621.40-134.80 611-134.80L611-134.80L611-134.80Q569.60-134.80 545.80-108L545.80-108L545.80-108Q543-105 539.20-95.90L539.20-95.90L539.20-95.90Q535.40-86.80 535.40-78.40L535.40-78.40L535.40-78.40Q535.40-66.80 543.60-60.40L543.60-60.40L543.60-60.40Q554-75.60 568.20-84.60L568.20-84.60L568.20-84.60Q582.40-93.60 597-93.60L597-93.60L597-93.60Q615-93.60 615-79.60L615-79.60L615-79.60Q615-62.80 595.30-43.10L595.30-43.10L595.30-43.10Q575.60-23.40 558.80-23.40L558.80-23.40L558.80-23.40Q548-23.40 548-32.60L548-32.60L548-32.60Q548-35.80 549.70-38.20L549.70-38.20L549.70-38.20Q551.40-40.60 553.80-40L553.80-40L553.40-35.40L553.40-35.40Q553.40-32.40 562.60-32.40L562.60-32.40L562.60-32.40Q576.20-32.40 591.30-46.40L591.30-46.40L591.30-46.40Q606.40-60.40 609.60-73.80L609.60-73.80L609.60-73.80Q610.40-76.80 610.40-79.20L610.40-79.20L610.40-79.20Q610.40-88.20 598.90-88.20L598.90-88.20L598.90-88.20Q587.40-88.20 575.10-79.40L575.10-79.40L575.10-79.40Q562.80-70.60 552-56.20L552-56.20L552-56.20Q552.80-55.80 558.20-54.60L558.20-54.60L570.20-54.20L570.20-54.20Q579-53.80 579-52.20L579-52.20L579-52.20Q579-49.40 570.60-49.40L570.60-49.40L570.60-49.40Q570-49.40 569.40-49.40L569.40-49.40L569.40-49.40Q557.20-49.40 549.40-52.40L549.40-52.40L549.40-52.40Q534-28.80 534-9L534-9L534-9Q534 16.60 553.80 16.60L553.80 16.60L553.80 16.60Q576.20 16.60 600.40-14.60L600.40-14.60L639.60-73L639.60-73Q661.60-105 677.80-105.80L677.80-105.80L685.40-104L685.40-104Q689-102 689-98L689-98L689-98Q689-94 687-94L687-94L680.60-95L680.60-95Q666.80-95 645.20-65.20L645.20-65.20L605.40-9.60L605.40-9.60Q579.80 20.20 556.40 20.20L556.40 20.20L556.40 20.20Q540.40 20.20 534.30 11.60L534.30 11.60L534.30 11.60Q528.20 3 528.20-13.40ZM721.20-59.80L721.20-59.80L724.00-60.40L724.00-60.40Q726.20-60.40 728.20-58.60L728.20-58.60L728.20-58.60Q730.20-56.80 730.20-55.80L730.20-55.80L730.20-55.80Q730.20-54.80 717.80-36.50L717.80-36.50L717.80-36.50Q705.40-18.20 705.40-11L705.40-11L705.40-11Q705.40-10.40 705.60-9.80L705.60-9.80L705.60-9.80Q706.60-5.20 710.00-5.20L710.00-5.20L710.00-5.20Q720.40-5.20 748.00-39.60L748.00-39.60L748.00-39.60Q748.60-40.40 749.40-40.40L749.40-40.40L749.40-40.40Q750.20-40.40 750.20-38.90L750.20-38.90L750.20-38.90Q750.20-37.40 748.40-35L748.40-35L748.40-35Q722.80-0.80 709.40-0.80L709.40-0.80L709.40-0.80Q707.60-0.80 706.00-1.40L706.00-1.40L706.00-1.40Q697.20-4.80 697.20-14.60L697.20-14.60L697.20-14.60Q697.20-18 698.00-21.40L698.00-21.40L685.60-9.40L685.60-9.40Q673.80 1 668.50 1L668.50 1L668.50 1Q663.20 1 658.40-2.40L658.40-2.40L658.40-2.40Q653.00-6.40 653.00-13L653.00-13L653.00-13Q653.00-27.60 673.40-47.90L673.40-47.90L673.40-47.90Q693.80-68.20 710.80-68.20L710.80-68.20L710.80-68.20Q717.40-68.20 719.60-63.60L719.60-63.60L719.60-63.60Q720.20-62 720.60-60.90L720.60-60.90L720.60-60.90Q721.00-59.80 721.20-59.80ZM661.40-10.60L661.40-10.60L661.40-10.60Q661.40-3.40 666.40-3.40L666.40-3.40L666.40-3.40Q678.00-3.40 698.00-28.80L698.00-28.80L719.20-58L719.20-58Q717.60-60.80 714.00-60.80L714.00-60.80L714.00-60.80Q701.80-60.80 681.60-41.90L681.60-41.90L681.60-41.90Q661.40-23 661.40-10.60ZM802.80-60.60L802.80-60.60L802.80-60.60Q825.20-97 834-97L834-97L834-97Q835.40-97 837.90-96.10L837.90-96.10L837.90-96.10Q840.40-95.20 840.40-93.40L840.40-93.40L840.40-93.40Q840.40-92.40 839.40-90.80L839.40-90.80L839.40-90.80Q823.40-71.20 815.60-61.40L815.60-61.40L815.60-61.40Q792-31.60 789.60-18.60L789.60-18.60L789.60-18.60Q789-15.80 789-13L789-13L789-13Q789-4 796.40-4L796.40-4L796.40-4Q811.20-4 835-31.40L835-31.40L835-31.40Q837-33.40 838.40-33.70L838.40-33.70L838.40-33.70Q839.80-34 839.80-33L839.80-33L839.80-33Q839.80-32 838.60-30.60L838.60-30.60L838.60-30.60Q815.40-2.80 797.40 0.40L797.40 0.40L797.40 0.40Q796.40 0.60 794.60 0.60L794.60 0.60L794.60 0.60Q788.40 0.60 785.30-3.70L785.30-3.70L785.30-3.70Q782.20-8 782.20-13L782.20-13L782.20-13Q782.20-18.60 784.40-25.40L784.40-25.40L768.20-9.20L768.20-9.20Q757.20 1 750.90 1L750.90 1L750.90 1Q744.60 1 740.40-2.40L740.40-2.40L740.40-2.40Q735.40-6.20 735.40-13L735.40-13L735.40-13Q735.40-27.60 755.80-47.90L755.80-47.90L755.80-47.90Q776.20-68.20 793.20-68.20L793.20-68.20L793.20-68.20Q798.80-68.20 801-65.20L801-65.20L801-65.20Q801.80-64.20 802.80-60.60ZM743.80-10.60L743.80-10.60L743.80-10.60Q743.80-3.40 748.80-3.40L748.80-3.40L748.80-3.40Q757.40-3.40 777.40-27L777.40-27L777.40-27Q781-31.20 801.40-58.40L801.40-58.40L801.40-58.40Q800-60.80 796.60-60.80L796.60-60.80L796.60-60.80Q784.20-60.80 764-41.90L764-41.90L764-41.90Q743.80-23 743.80-10.60ZM840.80 2.60L840.80 2.60L840.80 2.60Q838.60 2.60 836.80 2L836.80 2L836.80 2Q824-1.60 824-12.40L824-12.40L824-12.40Q824-26.40 841.60-44.80L841.60-44.80L841.60-44.80Q859.20-63.20 873.20-63.20L873.20-63.20L873.20-63.20Q877.80-63.20 880.70-60.70L880.70-60.70L880.70-60.70Q883.60-58.20 883.60-54.60L883.60-54.60L883.60-54.60Q883.60-43.40 866.70-33.20L866.70-33.20L866.70-33.20Q849.80-23 839.20-23L839.20-23L839.20-23Q837.60-23 836.40-23.40L836.40-23.40L836.40-23.40Q833.40-18 833.40-12L833.40-12L833.40-12Q833.40-1.60 843.30-1.60L843.30-1.60L843.30-1.60Q853.20-1.60 869-15L869-15L869-15Q881.20-24.80 889.80-35.80L889.80-35.80L889.80-35.80Q891.60-38.20 892.90-38.20L892.90-38.20L892.90-38.20Q894.20-38.20 894.20-37L894.20-37L894.20-37Q894.20-35.80 892.60-33.60L892.60-33.60L892.60-33.60Q881.80-19.40 866.60-8.40L866.60-8.40L866.60-8.40Q851.40 2.60 840.80 2.60ZM878.60-55L878.60-55L878.60-55Q878.60-57.40 873.50-57.40L873.50-57.40L873.50-57.40Q868.40-57.40 859-49.60L859-49.60L859-49.60Q846.40-39.20 839.40-27.80L839.40-27.80L839.40-27.80Q840.60-27.40 842-27.40L842-27.40L842-27.40Q849.60-27.40 862.30-35.50L862.30-35.50L862.30-35.50Q875-43.60 878.20-53.20L878.20-53.20L878.20-53.20Q878.60-54.20 878.60-55ZM938 1.20L938 1.20L938 1.20Q937 1.40 933.70 1.40L933.70 1.40L933.70 1.40Q930.40 1.40 927.10-1.20L927.10-1.20L927.10-1.20Q923.80-3.80 923.80-7.90L923.80-7.90L923.80-7.90Q923.80-12 925.30-17L925.30-17L925.30-17Q926.80-22 927.40-24.60L927.40-24.60L927.40-24.60Q904.40 2.20 891.40 2.20L891.40 2.20L891.40 2.20Q883.20 2.20 882.40-8L882.40-8L882.40-8Q882.40-8.80 882.40-9.40L882.40-9.40L882.40-9.40Q882.40-18 892.80-32.60L892.80-32.60L892.80-32.60Q887-27.40 881-20.60L881-20.60L881-20.60Q880.20-19.80 879-19.80L879-19.80L879-19.80Q878.20-19.80 878.20-20.80L878.20-20.80L878.20-20.80Q878.20-21.80 880-24.20L880-24.20L907.60-56.60L907.60-56.60Q912.80-62.60 918.20-62.60L918.20-62.60L918.20-62.60Q923.60-62.60 923.60-59L923.60-59L923.60-59Q923.60-57.60 922.40-56.40L922.40-56.40L922.40-56.40Q914.40-49 902.30-31.80L902.30-31.80L902.30-31.80Q890.20-14.60 890.20-6.40L890.20-6.40L890.20-6.40Q890.20-2.80 892.60-2.80L892.60-2.80L892.60-2.80Q901-2.80 917-19.40L917-19.40L917-19.40Q922.60-25 937.80-44.10L937.80-44.10L937.80-44.10Q953-63.20 957.80-63.20L957.80-63.20L957.80-63.20Q965-63.20 965-57.60L965-57.60L965-57.60Q965-55.60 956.60-46L956.60-46L956.60-46Q945.20-32.20 939.20-23.50L939.20-23.50L939.20-23.50Q933.20-14.80 933.20-9.40L933.20-9.40L933.20-9.40Q933.20-4 936.20-4L936.20-4L936.20-4Q937.60-4 939.40-4.80L939.40-4.80L939.40-4.80Q953.20-10.80 972.40-32.80L972.40-32.80L972.40-32.80Q973.60-34.20 974.80-34.20L974.80-34.20L974.80-34.20Q976-34.20 976-32.90L976-32.90L976-32.90Q976-31.60 974.60-30L974.60-30L974.60-30Q966-20 954.40-9.90L954.40-9.90L954.40-9.90Q942.80 0.20 938 1.20Z" fill="#e76a24"></path></g></g><style>text {
  font-size: 64px;
  font-family: Arial Black;
  dominant-baseline: central;
  text-anchor: middle;
}</style></svg>
